<svg id="Capa_1" enable-background="new 0 0 330 123" height="123" viewBox="0 0 330 123" width="330" xmlns="http://www.w3.org/2000/svg">
<g id="SvgjsG1007" featurekey="symbolContainer" transform="matrix(1,0,0,1,0,0)" fill="#daf0e0"><rect width="110" height="123" rx="8"></rect></g>
<g id="SvgjsG1008" featurekey="symbolFeature-0" transform="matrix(1.6666713593630238,0,0,1.6666713593630238,9.999773161113193,8.258314224219635)" fill="#fe636d"><title xmlns="http://www.w3.org/2000/svg">travel-suitcase-tourism-tourist-vacation-man</title><metadata xmlns="http://www.w3.org/2000/svg"><!--?xpacket begin="&;" id="W5M0MpCehiHzreSzNTczkc9d"?--><x:xmpmeta xmlns:x="adobe:ns:meta/" x:xmptk="Adobe XMP Core 5.6-c143 79.161356, 2017/09/07-01:11:22        "/><!--?xpacket end="w"?--></metadata><path xmlns="http://www.w3.org/2000/svg" d="M11,29.04a4.9,4.9,0,0,0,1.488-.224A5.007,5.007,0,1,0,11,29.04Zm0-8a3,3,0,1,1-3,3A3,3,0,0,1,11,21.04Z"/><circle xmlns="http://www.w3.org/2000/svg" cx="11" cy="24.04" r="1"/><path xmlns="http://www.w3.org/2000/svg" d="M15.907,29.04H22.13a9.727,9.727,0,0,1,1.06-1.582,8.044,8.044,0,0,1-1.34-4.289V22.04a3.971,3.971,0,0,1-2.828-1.174,3.874,3.874,0,0,1-1.033-1.826h-2.1a7,7,0,0,1,.018,10Z"/><path xmlns="http://www.w3.org/2000/svg" d="M17.7,33.306l-.5-2.266H15a7.974,7.974,0,0,0-8,8v21h7v-20A7.975,7.975,0,0,1,17.7,33.306Z"/><path xmlns="http://www.w3.org/2000/svg" d="M23.85,21.04v2.11A6.019,6.019,0,0,0,25.256,26.9,6.043,6.043,0,0,0,29.85,29.04h4a5.981,5.981,0,0,0,1.842-.291,5.868,5.868,0,0,0,2.4-1.461A5.964,5.964,0,0,0,39.85,23.04v-.2a13.835,13.835,0,0,1,0-1.866l0-10.934h-16Zm12.5-6a1.5,1.5,0,1,1-1.5,1.5A1.5,1.5,0,0,1,36.35,15.04ZM31.991,25.245h0a3.228,3.228,0,0,0,2.3-.952l1.414,1.414A5.214,5.214,0,0,1,32,27.245h-.008a5.188,5.188,0,0,1-3.7-1.54l1.418-1.41A3.2,3.2,0,0,0,31.991,25.245ZM27.35,15.04a1.5,1.5,0,1,1-1.5,1.5A1.5,1.5,0,0,1,27.35,15.04Z"/><path xmlns="http://www.w3.org/2000/svg" d="M19.85,18.04a1.948,1.948,0,0,0,.581,1.406,1.983,1.983,0,0,0,1.419.594v-4A2,2,0,0,0,19.85,18.04Z"/><path xmlns="http://www.w3.org/2000/svg" d="M22.85,8.04h2.282L24.168,6.6l1.664-1.11,1.7,2.555h2.6L29.168,6.6l1.664-1.11,1.7,2.555h2.6L34.168,6.6l1.664-1.11,1.7,2.555h2.214a5.009,5.009,0,0,0-4.9-4H19.618l1.446,2.893A1.987,1.987,0,0,0,22.85,8.04Z"/><path xmlns="http://www.w3.org/2000/svg" d="M29.85,31.04a7.863,7.863,0,0,1-.85-.058V33.04a3,3,0,1,0,6,0V30.95a8.031,8.031,0,0,1-1.15.09Z"/><path xmlns="http://www.w3.org/2000/svg" d="M40,40.53V60.04h3V39.189l-.643-2.1A9.557,9.557,0,0,1,40,40.53Z"/><path xmlns="http://www.w3.org/2000/svg" d="M41.032,33.1a4.521,4.521,0,0,0-.05-.505l-.729-2.384a7.477,7.477,0,0,0-.9-1.377A7.832,7.832,0,0,1,37,30.385V33.04a5,5,0,0,1-10,0V30.491a7.963,7.963,0,0,1-2.474-1.486,7.742,7.742,0,0,0-.9,1.457,7.54,7.54,0,0,0,1.94,8.808,1.06,1.06,0,0,1,.124.1,4,4,0,0,0,.361.286A9.662,9.662,0,0,1,30,47.43V60.04h4V47.46a9.675,9.675,0,0,1,3.95-7.808,4.073,4.073,0,0,0,.359-.285,1.06,1.06,0,0,1,.124-.1A7.465,7.465,0,0,0,41.032,33.1Z"/><path xmlns="http://www.w3.org/2000/svg" d="M41.85,16.04v4a1.986,1.986,0,0,0,1.413-.587,1.958,1.958,0,0,0,.587-1.413A2,2,0,0,0,41.85,16.04Z"/><path xmlns="http://www.w3.org/2000/svg" d="M43.585,34.266l1.371,4.482A1,1,0,0,1,45,39.04v21h3v-20A6.026,6.026,0,0,0,43.585,34.266Z"/><path xmlns="http://www.w3.org/2000/svg" d="M36,60.04h2V42.3a7.648,7.648,0,0,0-2,5.132Z"/><path xmlns="http://www.w3.org/2000/svg" d="M16,40.04v20h3V39.15l-.827-3.719A5.983,5.983,0,0,0,16,40.04Z"/><path xmlns="http://www.w3.org/2000/svg" d="M26,60.04h2V47.46A7.678,7.678,0,0,0,26,42.3Z"/><path xmlns="http://www.w3.org/2000/svg" d="M21.3,31.04h-2.05l1.729,7.782A1,1,0,0,1,21,39.04v21h3v-19.5A9.565,9.565,0,0,1,21.3,31.04Z"/></g>
<g id="SvgjsG1009" featurekey="nameFeature-0" transform="matrix(1.289656809130556,0,0,1.289656809130556,128.1944812666604,28.329637331251078)" fill="#111111"><path d="M10.48 37.76 l0 -21.2 l-6.8 0 c-1.28 0 -2.28 -1.04 -2.28 -2.28 s1 -2.28 2.28 -2.28 l18.6 0 c1.24 0 2.24 1.04 2.24 2.28 s-1 2.28 -2.24 2.28 l-6.84 0 l0 21.2 c0 1.36 -1.12 2.44 -2.48 2.44 s-2.48 -1.08 -2.48 -2.44 z M28.96 37.8 l0 -24.8 c0 -1.32 1.04 -2.4 2.4 -2.4 s2.44 1.08 2.44 2.4 l0 9.12 c1.36 -1.96 3.32 -3.68 6.6 -3.68 c4.76 0 7.52 3.2 7.52 8.08 l0 11.28 c0 1.36 -1.04 2.4 -2.4 2.4 s-2.44 -1.04 -2.44 -2.4 l0 -9.8 c0 -3.28 -1.64 -5.16 -4.52 -5.16 c-2.8 0 -4.76 1.96 -4.76 5.24 l0 9.72 c0 1.36 -1.08 2.4 -2.44 2.4 c-1.32 0 -2.4 -1.04 -2.4 -2.4 z M53.76 37.8 l0 -16.72 c0 -1.36 1.04 -2.44 2.4 -2.44 s2.44 1.08 2.44 2.44 l0 2.16 c1.12 -2.64 3.2 -4.64 5.32 -4.64 c1.52 0 2.4 1 2.4 2.4 c0 1.28 -0.84 2.12 -1.92 2.32 c-3.44 0.6 -5.8 3.24 -5.8 8.24 l0 6.24 c0 1.32 -1.08 2.4 -2.44 2.4 c-1.32 0 -2.4 -1.04 -2.4 -2.4 z M73.91999999999999 27.96 l10.84 0 c-0.32 -3.12 -2.16 -5.56 -5.36 -5.56 c-2.96 0 -5.04 2.28 -5.48 5.56 z M87.56 37.68 c-1.92 1.72 -4.32 2.8 -7.6 2.8 c-6.12 0 -10.84 -4.44 -10.84 -10.96 l0 -0.08 c0 -6.04 4.28 -11 10.32 -11 c6.72 0 10.04 5.52 10.04 10.4 c0 1.36 -1.04 2.32 -2.28 2.32 l-13.24 0 c0.52 3.44 2.96 5.36 6.08 5.36 c2.04 0 3.64 -0.72 5 -1.84 c0.36 -0.28 0.68 -0.44 1.24 -0.44 c1.08 0 1.92 0.84 1.92 1.96 c0 0.6 -0.28 1.12 -0.64 1.48 z M98.07999999999998 27.96 l10.84 0 c-0.32 -3.12 -2.16 -5.56 -5.36 -5.56 c-2.96 0 -5.04 2.28 -5.48 5.56 z M111.72 37.68 c-1.92 1.72 -4.32 2.8 -7.6 2.8 c-6.12 0 -10.84 -4.44 -10.84 -10.96 l0 -0.08 c0 -6.04 4.28 -11 10.32 -11 c6.72 0 10.04 5.52 10.04 10.4 c0 1.36 -1.04 2.32 -2.28 2.32 l-13.24 0 c0.52 3.44 2.96 5.36 6.08 5.36 c2.04 0 3.64 -0.72 5 -1.84 c0.36 -0.28 0.68 -0.44 1.24 -0.44 c1.08 0 1.92 0.84 1.92 1.96 c0 0.6 -0.28 1.12 -0.64 1.48 z M131.16 37.52 l0 -23.04 c0 -1.4 1.08 -2.48 2.48 -2.48 l7.96 0 c8.8 0 14.88 6.04 14.88 13.92 l0 0.08 c0 7.88 -6.08 14 -14.88 14 l-7.96 0 c-1.4 0 -2.48 -1.08 -2.48 -2.48 z M136.07999999999998 35.519999999999996 l5.52 0 c5.88 0 9.72 -3.96 9.72 -9.44 l0 -0.08 c0 -5.48 -3.84 -9.52 -9.72 -9.52 l-5.52 0 l0 19.04 z"></path>
</g>
</svg>